# Rhino

mtllib arm1.mtl
usemtl diffuse_Black
v 0 -6 2
v 0 -6 0
v 1 -7.5 1
v 0 -6 0
v 2 -6 0
v 1 -7.5 1
v 2 -6 0
v 2 -6 2
v 1 -7.5 1
v 2 -6 2
v 0 -6 2
v 1 -7.5 1
v 0 -6 2
v 0 -6 0
v 2 -6 0
v 2 -6 2
vt 0.71833908557891846 0
vt 0.71833908557891846 0.30938482284545898
vt 0.43960779905319214 0.15469241142272949
vt 0.99853515625 0
vt 0.99853515625 0.30938482284545898
vt 0.71980392932891846 0.15469241142272949
vt 0.99853515625 0.31084966659545898
vt 0.99853515625 0.62023448944091797
vt 0.71980392932891846 0.46554207801818848
vt 0.71833908557891846 0.31084966659545898
vt 0.71833908557891846 0.62023448944091797
vt 0.43960779905319214 0.46554207801818848
vt 0.43814295530319214 0.21980389952659607
vt 0.21907147765159607 0.43960779905319214
vt 0 0.21980389952659607
vt 0.21907147765159607 0
vn -0.83205032348632813 -0.55470019578933716 0
vn -0.83205032348632813 -0.55470019578933716 0
vn -0.83205032348632813 -0.55470019578933716 0
vn 0 -0.55470019578933716 -0.83205032348632813
vn 0 -0.55470019578933716 -0.83205032348632813
vn 0 -0.55470019578933716 -0.83205032348632813
vn 0.83205032348632813 -0.55470019578933716 0
vn 0.83205032348632813 -0.55470019578933716 0
vn 0.83205032348632813 -0.55470019578933716 0
vn 0 -0.55470019578933716 0.83205032348632813
vn 0 -0.55470019578933716 0.83205032348632813
vn 0 -0.55470019578933716 0.83205032348632813
vn 0 1 0
vn 0 1 0
vn 0 1 0
vn 0 1 0
f 3/3/3 1/1/1 2/2/2
f 6/6/6 4/4/4 5/5/5
f 9/9/9 7/7/7 8/8/8
f 12/12/12 10/10/10 11/11/11
f 13/13/13 16/16/16 15/15/15
f 15/15/15 14/14/14 13/13/13
usemtl diffuse_Black
v 2 0 0
v 0 0 0
v 1 1.5 1
v 0 0 0
v 0 0 2
v 1 1.5 1
v 0 0 2
v 2 0 2
v 1 1.5 1
v 2 0 2
v 2 0 0
v 1 1.5 1
v 2 0 0
v 0 0 0
v 0 0 2
v 2 0 2
vt 0.99853515625 0.31084966659545898
vt 0.99853515625 0.62023448944091797
vt 0.71980392932891846 0.46554207801818848
vt 0.71833908557891846 0.31084966659545898
vt 0.71833908557891846 0.62023448944091797
vt 0.43960779905319214 0.46554207801818848
vt 0.99853515625 0
vt 0.99853515625 0.30938482284545898
vt 0.71980392932891846 0.15469241142272949
vt 0.71833908557891846 0
vt 0.71833908557891846 0.30938482284545898
vt 0.43960779905319214 0.15469241142272949
vt 0.43814295530319214 0.21980389952659607
vt 0.21907147765159607 0.43960779905319214
vt 0 0.21980389952659607
vt 0.21907147765159607 0
vn 0 0.55470019578933716 -0.83205032348632813
vn 0 0.55470019578933716 -0.83205032348632813
vn 0 0.55470019578933716 -0.83205032348632813
vn -0.83205032348632813 0.55470019578933716 0
vn -0.83205032348632813 0.55470019578933716 0
vn -0.83205032348632813 0.55470019578933716 0
vn 0 0.55470019578933716 0.83205032348632813
vn 0 0.55470019578933716 0.83205032348632813
vn 0 0.55470019578933716 0.83205032348632813
vn 0.83205032348632813 0.55470019578933716 0
vn 0.83205032348632813 0.55470019578933716 0
vn 0.83205032348632813 0.55470019578933716 0
vn 0 -1 0
vn 0 -1 0
vn 0 -1 0
vn 0 -1 0
f 19/19/19 17/17/17 18/18/18
f 22/22/22 20/20/20 21/21/21
f 25/25/25 23/23/23 24/24/24
f 28/28/28 26/26/26 27/27/27
f 29/29/29 32/32/32 31/31/31
f 31/31/31 30/30/30 29/29/29
usemtl diffuse_Black
v 0 0 0
v 0 -6 0
v 2 0 0
v 2 -6 0
v 2 0 0
v 2 -6 0
v 2 0 2
v 2 -6 2
v 2 0 2
v 2 -6 2
v 0 0 2
v 0 -6 2
v 0 0 2
v 0 -6 2
v 0 0 0
v 0 -6 0
v 0 0 0
v 2 0 0
v 2 0 2
v 0 0 2
v 0 -6 0
v 2 -6 0
v 2 -6 2
v 0 -6 2
vt 0 0
vt 0 0.79999935626983643
vt 0.25 0
vt 0.25 0.79999935626983643
vt 0.25 0
vt 0.25 0.79999935626983643
vt 0.5 0
vt 0.5 0.79999935626983643
vt 0.5 0
vt 0.5 0.79999935626983643
vt 0.75 0
vt 0.75 0.79999935626983643
vt 0.75 0
vt 0.75 0.79999935626983643
vt 1 0
vt 1 0.79999935626983643
vt 0 1
vt 0.25 1
vt 0.25 0.80000013113021851
vt 0 0.80000013113021851
vt 0.75 0.80000013113021851
vt 1 0.80000013113021851
vt 1 1
vt 0.75 1
vn 0 0 -1
vn 0 0 -1
vn 0 0 -1
vn 0 0 -1
vn 1 0 0
vn 1 0 0
vn 1 0 0
vn 1 0 0
vn 0 0 1
vn 0 0 1
vn 0 0 1
vn 0 0 1
vn -1 0 0
vn -1 0 0
vn -1 0 0
vn -1 0 0
vn 0 1 0
vn 0 1 0
vn 0 1 0
vn 0 1 0
vn 0 -1 0
vn 0 -1 0
vn 0 -1 0
vn 0 -1 0
f 33/33/33 35/35/35 36/36/36
f 37/37/37 39/39/39 40/40/40
f 41/41/41 43/43/43 44/44/44
f 45/45/45 47/47/47 48/48/48
f 50/50/50 49/49/49 52/52/52
f 52/52/52 51/51/51 50/50/50
f 54/54/54 56/56/56 53/53/53
f 56/56/56 54/54/54 55/55/55
f 33/33/33 36/36/36 34/34/34
f 37/37/37 40/40/40 38/38/38
f 41/41/41 44/44/44 42/42/42
f 45/45/45 48/48/48 46/46/46
